<svg width="274" height="119" viewBox="0 0 274 119" fill="none" xmlns="http://www.w3.org/2000/svg">
<path d="M0.42 40.5566C0.54 40.4673 0.873333 40.2553 1.116 40.0953C1.372 39.9246 1.676 39.746 1.95467 39.57C2.512 39.2153 3.116 38.8686 3.70667 38.518C4.292 38.1646 4.908 37.8273 5.516 37.4846C6.12667 37.1433 6.73067 36.7966 7.36 36.4713C8.604 35.8086 9.848 35.142 11.1267 34.518L13.0333 33.5633L14.9707 32.6513L16.9093 31.7393L18.8733 30.8686C20.1893 30.298 21.4893 29.6953 22.8267 29.1646L26.8213 27.5286L30.864 25.9913C32.2067 25.4633 33.5773 25.0006 34.9413 24.522C36.308 24.0513 37.664 23.5513 39.0413 23.1033L43.18 21.7806L45.252 21.1206L47.3427 20.5166L51.5267 19.306C52.9187 18.8913 54.336 18.566 55.74 18.19L59.9653 17.098L64.2227 16.1206C86.9493 10.958 110.385 8.38197 133.903 8.08197C145.669 7.81797 157.452 8.34731 169.227 9.11931C175.104 9.64064 181.003 10.0313 186.863 10.7993C189.796 11.1473 192.736 11.4686 195.669 11.8406L204.448 13.1433C227.849 16.702 251.04 21.9833 273.843 28.678C251.439 20.7526 228.5 14.1913 205.137 9.32464L196.367 7.52997C193.431 6.99397 190.485 6.50864 187.543 5.99531C181.667 4.89931 175.732 4.17664 169.811 3.32731C157.939 1.89397 146 0.705973 134.001 0.319307C110.02 -0.678027 85.832 0.628639 61.9453 4.70064L57.4667 5.47531L53.0053 6.37264C51.5213 6.68331 50.0253 6.94464 48.548 7.29797L44.108 8.32331L41.8867 8.83664L39.6773 9.40997L35.2573 10.5606C33.7853 10.9526 32.328 11.4006 30.8613 11.818C29.396 12.2446 27.9267 12.654 26.4747 13.1353L22.1053 14.53L17.7627 16.0366C16.3093 16.5246 14.88 17.0926 13.44 17.6286L11.2813 18.446L9.13867 19.3153L6.99333 20.1873L4.86 21.1126C4.456 21.2833 4.056 21.466 3.65333 21.6446L0 39.9113L0.42 40.5566Z" fill="#07A7DF"/>
<path d="M273.074 78.186C272.818 78.3553 272.514 78.5367 272.236 78.7113C271.678 79.066 271.074 79.4127 270.485 79.7633C269.898 80.118 269.282 80.4553 268.674 80.7967C268.064 81.138 267.46 81.4847 266.83 81.81C265.588 82.4727 264.342 83.138 263.064 83.7633L261.157 84.718L259.22 85.63L257.282 86.542L255.317 87.4113C254.001 87.9847 252.702 88.5873 251.364 89.1167L247.37 90.7527L243.325 92.29C241.984 92.8193 240.613 93.2807 239.25 93.7593C237.882 94.23 236.526 94.7313 235.15 95.178L231.01 96.5007L228.938 97.1607L226.848 97.7647L222.664 98.974C221.272 99.39 219.854 99.7153 218.45 100.091L214.225 101.185L209.969 102.161C187.241 107.325 163.805 109.899 140.288 110.199C128.522 110.463 116.738 109.935 104.964 109.161C99.0863 108.641 93.1877 108.249 87.3277 107.482C84.3943 107.133 81.4543 106.813 78.5197 106.441L69.7437 105.137C46.341 101.578 23.1517 96.298 0.347656 89.6033C22.753 97.5287 45.6917 104.09 69.0543 108.957L77.825 110.751C80.761 111.287 83.7063 111.773 86.649 112.286C92.5237 113.382 98.4583 114.105 104.38 114.954C116.253 116.387 128.192 117.575 140.19 117.962C164.17 118.959 188.358 117.653 212.246 113.579L216.724 112.805L221.185 111.909C222.669 111.598 224.165 111.337 225.642 110.983L230.084 109.958L232.305 109.445L234.513 108.871L238.933 107.719C240.405 107.327 241.864 106.881 243.33 106.463C244.794 106.037 246.265 105.627 247.716 105.146L252.085 103.751L256.429 102.245C257.88 101.757 259.312 101.189 260.752 100.654L262.909 99.8353L265.052 98.9647L267.198 98.094L269.33 97.1687C269.445 97.1207 269.558 97.0673 269.673 97.018L273.494 77.9113C273.36 78.0007 273.205 78.1007 273.074 78.186Z" fill="#0D3A5B"/>
<path d="M260.143 45.0045H258.678L258.895 43.9338H263.168L262.948 45.0045H261.492L260.748 48.7031H259.399L260.143 45.0045Z" fill="#231F20"/>
<path d="M269.204 43.9338L268.264 48.7031H267.016L267.508 46.1898L265.92 48.2338H265.328L264.461 46.1898L263.957 48.7031H262.719L263.672 43.9338H264.768L265.887 46.6938L268.052 43.9338H269.204Z" fill="#231F20"/>
<path d="M32.9658 58.074C31.6538 57.5434 29.9952 57.0274 27.9925 56.526C26.1925 56.0554 24.8672 55.6127 24.0125 55.1994C23.1565 54.7874 22.7298 54.198 22.7298 53.4314C22.7298 52.546 23.2232 51.8247 24.2112 51.2647C25.1978 50.7047 26.5618 50.4247 28.3005 50.4247C29.8338 50.4247 31.3298 50.6234 32.7898 51.0207C34.2485 51.4194 35.5818 52.002 36.7912 52.7687L39.9738 46.2687C38.5885 45.4127 36.9378 44.758 35.0218 44.2994C33.1058 43.8434 31.0432 43.6154 28.8312 43.6154C25.8258 43.6154 23.2005 44.0727 20.9618 44.986C18.7205 45.8994 16.9952 47.1887 15.7872 48.854C14.5778 50.5194 13.9752 52.458 13.9752 54.6687C13.9752 56.4967 14.4538 57.9714 15.4112 59.0914C16.3685 60.2114 17.5125 61.0447 18.8392 61.59C20.1645 62.1354 21.8298 62.6727 23.8352 63.2034C25.6045 63.6754 26.9085 64.118 27.7485 64.53C28.5885 64.9434 29.0085 65.518 29.0085 66.254C29.0085 67.11 28.5445 67.7794 27.6152 68.2674C26.6872 68.7527 25.3832 68.9954 23.7032 68.9954C21.9338 68.9954 20.1645 68.738 18.3965 68.222C16.6285 67.7074 14.9618 66.9474 13.3992 65.9447L9.95117 72.4887C11.3952 73.462 13.2672 74.258 15.5672 74.8767C17.8658 75.4954 20.2978 75.8047 22.8618 75.8047C25.8392 75.8047 28.4565 75.3487 30.7112 74.4354C32.9658 73.5207 34.7045 72.2314 35.9285 70.566C37.1512 68.9007 37.7632 66.9767 37.7632 64.7954C37.7632 63.026 37.2925 61.5967 36.3485 60.506C35.4058 59.4154 34.2778 58.6047 32.9658 58.074Z" fill="#0D3A5B"/>
<path d="M68.538 46.8429C66.3554 45.1042 63.29 44.2335 59.3407 44.2335H46.1194L39.9287 75.1855H48.6834L50.3207 66.9615H50.3327L51.6874 60.1975H51.6474L53.5047 51.1322H55.87H58.102C59.6354 51.1322 60.8287 51.4495 61.6847 52.0829C62.538 52.7162 62.966 53.6669 62.966 54.9349C62.966 56.6149 62.4354 57.9122 61.374 58.8255C60.314 59.7402 58.81 60.1975 56.8647 60.1975H54.1687L52.8994 66.9615H54.742L59.3407 75.1855H68.494L63.2327 65.9002C65.9434 64.9575 68.0514 63.4615 69.5554 61.4122C71.058 59.3642 71.81 56.9242 71.81 54.0935C71.81 50.9989 70.7194 48.5829 68.538 46.8429Z" fill="#0D3A5B"/>
<path d="M107.714 67.802C106.477 68.3034 105.105 68.554 103.602 68.554C101.096 68.554 99.1504 67.9287 97.7651 66.674C96.3798 65.422 95.6864 63.734 95.6864 61.6114C95.6864 59.5487 96.1144 57.706 96.9691 56.0847C97.8251 54.4634 99.0398 53.1887 100.617 52.2594C102.194 51.33 104.028 50.866 106.122 50.866C107.773 50.866 109.202 51.1247 110.412 51.6407C111.62 52.1567 112.725 53.0327 113.728 54.2714L120.006 49.3194C117.146 45.5167 112.652 43.6154 106.521 43.6154C102.658 43.6154 99.2397 44.4114 96.2611 46.002C93.2837 47.594 90.9704 49.7994 89.3198 52.6127C87.6678 55.4287 86.8438 58.6194 86.8438 62.1874C86.8438 64.8687 87.4851 67.2434 88.7664 69.3047C90.0491 71.3687 91.8624 72.9687 94.2064 74.1034C96.5491 75.238 99.2838 75.8047 102.408 75.8047C104.737 75.8047 106.954 75.4887 109.062 74.8554C111.17 74.2207 113.02 73.3007 114.612 72.0914L117.221 59.0474H109.484L107.714 67.802Z" fill="#07A7DF"/>
<path d="M148.172 46.8429C145.99 45.1042 142.924 44.2335 138.976 44.2335H125.755L119.562 75.1855H128.318L129.955 66.9615H129.966L131.321 60.1975H131.281L133.139 51.1322H135.504H137.737C139.269 51.1322 140.464 51.4495 141.319 52.0829C142.173 52.7162 142.6 53.6669 142.6 54.9349C142.6 56.6149 142.07 57.9122 141.009 58.8255C139.948 59.7402 138.444 60.1975 136.498 60.1975H133.804L132.533 66.9615H134.376L138.976 75.1855H148.128L142.866 65.9002C145.578 64.9575 147.686 63.4615 149.189 61.4122C150.693 59.3642 151.444 56.9242 151.444 54.0935C151.444 50.9989 150.354 48.5829 148.172 46.8429Z" fill="#07A7DF"/>
<path d="M178.284 63.1807C177.487 64.8167 176.353 66.122 174.879 67.094C173.405 68.0674 171.696 68.5527 169.749 68.5527C167.449 68.5527 165.659 67.9274 164.377 66.674C163.095 65.4207 162.453 63.7487 162.453 61.6554C162.453 59.6807 162.852 57.8754 163.647 56.238C164.444 54.602 165.579 53.298 167.052 52.3247C168.527 51.3514 170.236 50.866 172.181 50.866C174.48 50.866 176.272 51.4927 177.553 52.7447C178.836 53.998 179.477 55.6714 179.477 57.7647C179.477 59.7394 179.08 61.5447 178.284 63.1807ZM181.091 45.338C178.777 44.1887 176.057 43.614 172.933 43.614C169.189 43.614 165.851 44.41 162.919 46.002C159.984 47.594 157.7 49.8047 156.064 52.634C154.428 55.4647 153.609 58.6487 153.609 62.186C153.609 64.838 154.236 67.198 155.489 69.2607C156.743 71.3234 158.525 72.93 160.84 74.0807C163.153 75.23 165.872 75.8047 168.997 75.8047C172.741 75.8047 176.08 75.0087 179.013 73.4167C181.945 71.8247 184.231 69.614 185.867 66.7847C187.503 63.954 188.32 60.77 188.32 57.234C188.32 54.5794 187.695 52.222 186.441 50.158C185.189 48.0954 183.405 46.4874 181.091 45.338Z" fill="#07A7DF"/>
<path d="M216.045 44.234L212.641 61.258C212.11 63.8514 211.306 65.7167 210.232 66.8514C209.154 67.986 207.688 68.554 205.832 68.554C202.41 68.554 200.702 66.9327 200.702 63.69C200.702 62.9527 200.792 62.142 200.968 61.258L204.372 44.234H195.618L192.169 61.39C191.932 62.6274 191.814 63.7194 191.814 64.662C191.814 66.9327 192.33 68.9074 193.362 70.5874C194.394 72.2674 195.882 73.558 197.828 74.4567C199.773 75.3554 202.086 75.8047 204.77 75.8047C213.82 75.8047 219.289 71.1327 221.176 61.7887L224.669 44.234H216.045Z" fill="#07A7DF"/>
<path d="M253.011 46.8429C250.83 45.1042 247.735 44.2335 243.726 44.2335H230.638L224.447 75.1855H232.573L237.393 51.1322H237.978H239.758H242.577C244.139 51.1322 245.341 51.4495 246.181 52.0829C247.021 52.7162 247.441 53.6669 247.441 54.9349C247.441 56.6149 246.917 57.9122 245.871 58.8255C244.823 59.7402 243.327 60.1975 241.382 60.1975H238.057L236.762 67.0935H240.985C244.05 67.0935 246.739 66.5642 249.054 65.5029C251.369 64.4415 253.151 62.9375 254.405 60.9922C255.657 59.0469 256.283 56.7775 256.283 54.1829C256.283 51.0295 255.194 48.5829 253.011 46.8429Z" fill="#07A7DF"/>
</svg>
